<svg width="473" height="370" viewBox="0 0 473 370" fill="none" xmlns="http://www.w3.org/2000/svg">
<path d="M246.105 360.263L427.842 261.866C429.161 261.154 430.265 260.122 431.044 258.872C431.822 257.623 432.249 256.198 432.282 254.74C432.315 253.282 431.952 251.841 431.23 250.56C430.508 249.279 429.452 248.202 428.166 247.436L251.993 142.136C250.656 141.335 249.119 140.899 247.545 140.876C245.971 140.854 244.421 141.244 243.059 142.006L50.8251 249.646C49.5073 250.381 48.4131 251.438 47.6525 252.71C46.8918 253.982 46.4913 255.425 46.4913 256.893C46.4913 258.362 46.8918 259.805 47.6525 261.077C48.4131 262.349 49.5073 263.406 50.8251 264.141L222.241 360.107C225.861 362.131 229.967 363.21 234.151 363.238C238.336 363.265 242.456 362.24 246.105 360.263Z" fill="#F8997C"/>
<path d="M384.763 244.797V249.737L382.175 252.792" fill="#ADCEE1"/>
<path d="M281.841 184.633L381.825 244.433C382.739 244.98 383.489 245.748 384.002 246.66C384.515 247.571 384.773 248.596 384.752 249.634C384.73 250.671 384.429 251.685 383.878 252.576C383.327 253.467 382.545 254.205 381.609 254.716L229.894 337.5C227.773 338.656 225.375 339.254 222.939 339.233C220.502 339.213 218.115 338.575 216.015 337.383L116.475 280.95C109.239 275.217 109.738 264.427 116.475 263.972L267.328 184.412C269.541 183.177 272.06 182.545 274.616 182.584C277.172 182.623 279.669 183.331 281.841 184.633Z" fill="#88D3D8"/>
<path d="M281.841 180.512L381.825 240.312C382.739 240.86 383.489 241.627 384.002 242.539C384.515 243.451 384.773 244.475 384.752 245.513C384.73 246.55 384.429 247.564 383.878 248.455C383.327 249.346 382.545 250.084 381.609 250.595L229.881 333.392C227.76 334.548 225.361 335.146 222.925 335.126C220.489 335.105 218.101 334.467 216.002 333.275L116.462 276.829C115.296 276.175 114.328 275.237 113.655 274.109C112.982 272.981 112.628 271.702 112.628 270.401C112.628 269.099 112.982 267.82 113.655 266.692C114.328 265.564 115.296 264.626 116.462 263.972L267.314 180.291C269.529 179.053 272.05 178.42 274.609 178.459C277.168 178.498 279.668 179.208 281.841 180.512Z" fill="white"/>
<path d="M288.053 194.214L324.61 216.184C325.259 216.573 325.792 217.118 326.156 217.766C326.521 218.413 326.705 219.141 326.69 219.878C326.675 220.614 326.462 221.335 326.071 221.968C325.68 222.601 325.126 223.126 324.462 223.49L193.242 295.653C191.282 296.744 189.058 297.318 186.795 297.318C184.531 297.318 182.308 296.744 180.347 295.653C171.911 290.908 157.439 282.367 148.505 277.115C147.719 276.643 147.072 275.983 146.627 275.199C146.182 274.415 145.954 273.533 145.964 272.64C145.975 271.746 146.225 270.87 146.689 270.096C147.153 269.323 147.815 268.678 148.613 268.223C175.159 253.338 261.803 204.757 280.668 194.123C281.791 193.488 283.072 193.16 284.373 193.176C285.675 193.192 286.947 193.551 288.053 194.214Z" fill="#112E7C"/>
<path d="M286.018 253.858L240.203 278.727C239.499 279.108 238.913 279.662 238.502 280.332C238.092 281.002 237.872 281.765 237.865 282.543C237.858 283.321 238.065 284.088 238.463 284.764C238.862 285.441 239.439 286.004 240.135 286.397L267.085 301.62C268.011 302.136 269.062 302.407 270.131 302.407C271.2 302.407 272.25 302.136 273.176 301.62L320.083 275.815C320.671 275.493 321.16 275.026 321.501 274.462C321.841 273.898 322.021 273.257 322.021 272.604C322.021 271.951 321.841 271.31 321.501 270.746C321.16 270.182 320.671 269.715 320.083 269.393L292.041 253.793C291.117 253.299 290.077 253.045 289.021 253.057C287.965 253.068 286.93 253.344 286.018 253.858Z" fill="#112E7C"/>
<path opacity="0.1" d="M288.053 194.214L324.61 216.184C325.259 216.573 325.792 217.118 326.156 217.766C326.521 218.413 326.705 219.141 326.69 219.878C326.675 220.614 326.462 221.335 326.071 221.968C325.68 222.601 325.126 223.126 324.462 223.49L193.242 295.653C191.282 296.744 189.058 297.318 186.795 297.318C184.531 297.318 182.308 296.744 180.347 295.653C171.911 290.908 157.439 282.367 148.505 277.115C147.719 276.643 147.072 275.983 146.627 275.199C146.182 274.415 145.954 273.533 145.964 272.64C145.975 271.746 146.225 270.87 146.689 270.096C147.153 269.323 147.815 268.678 148.613 268.223C175.159 253.338 261.803 204.757 280.668 194.123C281.791 193.488 283.072 193.16 284.373 193.176C285.675 193.192 286.947 193.551 288.053 194.214Z" fill="#053855"/>
<path opacity="0.1" d="M286.018 253.858L240.203 278.727C239.499 279.108 238.913 279.662 238.502 280.332C238.092 281.002 237.872 281.765 237.865 282.543C237.858 283.321 238.065 284.088 238.463 284.764C238.862 285.441 239.439 286.004 240.135 286.397L267.085 301.62C268.011 302.136 269.062 302.407 270.131 302.407C271.2 302.407 272.25 302.136 273.176 301.62L320.083 275.815C320.671 275.493 321.16 275.026 321.501 274.462C321.841 273.898 322.021 273.257 322.021 272.604C322.021 271.951 321.841 271.31 321.501 270.746C321.16 270.182 320.671 269.715 320.083 269.393L292.041 253.793C291.117 253.299 290.077 253.045 289.021 253.057C287.965 253.068 286.93 253.344 286.018 253.858Z" fill="#053855"/>
<path opacity="0.32" d="M360.252 243.562L290.842 284.395L223.399 245.538L289.346 206.382" fill="url(#paint0_linear)"/>
<path d="M333.18 222.411V252.701H335.498L335.997 221.631" fill="#808080"/>
<path d="M346.399 210.763L351.048 243.692H348.717L343.852 211.985" fill="#808080"/>
<path d="M299.452 233.786C299.452 233.786 297.283 240.637 296.757 241.339C296.232 242.041 289.171 246.539 289.292 247.956C289.413 249.373 292.095 249.932 293.766 249.815C295.437 249.698 305.058 245.824 305.664 244.68C306.271 243.536 306.271 233.786 306.271 233.786H299.452Z" fill="#5C2D1D"/>
<path d="M310.866 241.807C310.866 241.807 308.696 248.658 308.171 249.36C307.645 250.062 300.584 254.56 300.706 255.977C300.827 257.394 303.508 257.953 305.179 257.836C306.85 257.719 316.471 253.845 317.078 252.701C317.684 251.557 317.684 241.807 317.684 241.807H310.866Z" fill="#5C2D1D"/>
<path d="M347.652 179.446C347.033 181.11 343.61 206.369 343.61 206.369L340.106 205.238L344.647 179.316" fill="#808080"/>
<path d="M346.399 210.763L346.453 206.694L342.721 207.929L343.852 211.985" fill="#A9CBF8"/>
<path d="M337.91 204.458C337.91 204.458 347.343 207.929 346.345 211.348C345.348 214.767 337.923 223.139 333.126 222.411C328.329 221.683 322.481 217.666 322.481 217.666" fill="#4A42A4"/>
<path d="M337.91 200.298C337.91 200.298 347.343 203.769 346.345 207.188C345.348 210.607 337.923 218.979 333.126 218.251C328.329 217.523 322.481 213.506 322.481 213.506" fill="#A6ACED"/>
<path d="M341.67 168.578C341.67 168.578 350.725 170.762 351.641 175.793C352.557 180.824 352.827 190.093 339.958 186.492C327.09 182.891 333.221 173.57 333.221 173.57" fill="#A6ACED"/>
<path d="M329.583 179.316C329.583 179.316 332.776 192.316 330.404 199.219C328.033 206.122 314.558 211.725 314.558 211.725L308.871 239.636C306.531 240.283 304.08 240.474 301.663 240.197C299.245 239.92 296.908 239.182 294.79 238.024C294.79 238.024 296.367 213.402 298.752 207.149C301.137 200.896 319.678 188.624 319.678 188.624" fill="#895851"/>
<path d="M330.121 195.8C330.121 195.8 311.58 208.072 309.195 214.325C306.81 220.578 305.233 245.2 305.233 245.2C307.345 246.348 309.673 247.081 312.081 247.356C314.489 247.63 316.929 247.441 319.261 246.799L324.947 218.888C324.947 218.888 334.595 216.288 336.953 209.294C339.311 202.3 338.301 191.809 338.301 191.809" fill="#895851"/>
<path d="M337.492 196.06C340.659 188.637 342.02 169.345 340.066 167.018C336.024 162.195 327.453 162.793 327.453 162.793C327.453 162.793 322.481 159.92 318.317 163.313C315.218 165.848 317.428 181.37 318.317 191.237C323.721 196.06 329.717 197.412 337.492 196.06Z" fill="#8CC63F"/>
<path d="M324.206 198.283C320.864 201.494 317.293 204.588 314.194 208.02C311.499 210.997 310.434 214.767 309.383 218.511C307.17 227.273 305.63 236.18 304.775 245.161C304.775 245.707 305.597 245.694 305.651 245.161C306.489 236.524 307.948 227.954 310.017 219.512C311.135 215.391 312.24 211.296 315.299 208.098C318.358 204.9 321.646 201.949 324.826 198.881C324.886 198.798 324.915 198.698 324.906 198.597C324.897 198.496 324.851 198.401 324.777 198.33C324.703 198.258 324.605 198.214 324.5 198.206C324.396 198.197 324.292 198.225 324.206 198.283Z" fill="#5C2D1D"/>
<path d="M360.818 219.564L362.542 218.654L283.404 174.922L231.929 203.093L232.616 203.483V240.663C232.633 240.749 232.681 240.827 232.751 240.883C232.821 240.94 232.909 240.97 233 240.97C233.092 240.97 233.18 240.94 233.25 240.883C233.32 240.827 233.368 240.749 233.384 240.663V203.912L309.518 246.812L309.707 246.708V273.475C309.724 273.561 309.771 273.639 309.841 273.695C309.912 273.752 310 273.782 310.091 273.782C310.182 273.782 310.27 273.752 310.34 273.695C310.41 273.639 310.458 273.561 310.475 273.475V246.318L360.332 219.863V243.562C360.349 243.648 360.397 243.726 360.467 243.782C360.537 243.839 360.625 243.869 360.716 243.869C360.808 243.869 360.896 243.839 360.966 243.782C361.036 243.726 361.084 243.648 361.1 243.562V219.902C361.102 219.823 361.074 219.745 361.023 219.683C360.971 219.622 360.898 219.579 360.818 219.564Z" fill="#DD654A"/>
<path d="M360.818 219.564L362.542 218.654L283.404 174.922L231.929 203.093L232.616 203.483V240.663C232.633 240.749 232.681 240.827 232.751 240.883C232.821 240.94 232.909 240.97 233 240.97C233.092 240.97 233.18 240.94 233.25 240.883C233.32 240.827 233.368 240.749 233.384 240.663V203.912L309.518 246.812L309.707 246.708V273.475C309.724 273.561 309.771 273.639 309.841 273.695C309.912 273.752 310 273.782 310.091 273.782C310.182 273.782 310.27 273.752 310.34 273.695C310.41 273.639 310.458 273.561 310.475 273.475V246.318L360.332 219.863V243.562C360.349 243.648 360.397 243.726 360.467 243.782C360.537 243.839 360.625 243.869 360.716 243.869C360.808 243.869 360.896 243.839 360.966 243.782C361.036 243.726 361.084 243.648 361.1 243.562V219.902C361.102 219.823 361.074 219.745 361.023 219.683C360.971 219.622 360.898 219.579 360.818 219.564Z" fill="#DD654A"/>
<path opacity="0.32" d="M281.396 201.715L256.534 215.079C260.698 217.614 277.407 226.285 281.423 229.015L307.12 213.155L302.875 203.223L281.396 201.715Z" fill="url(#paint1_linear)"/>
<path d="M301.932 216.067L320.042 205.888L296.447 192.81L277.946 201.988" fill="#B3B3B3"/>
<path d="M297.256 195.995C297.256 195.995 302.013 216.327 301.945 216.067C301.878 215.807 278.499 203.691 278.337 203.262C278.175 202.833 272.152 182.202 272.152 182.202L297.256 195.995Z" fill="white"/>
<path d="M290.411 192.238L295.289 189.404L301.096 194.071L296.73 195.839L290.411 192.238Z" fill="#FFE0CE"/>
<path d="M293.106 189.014C293.106 189.014 299.56 191.211 299.021 196.983C299.021 196.983 309.087 192.94 311.324 190.366C313.561 187.792 318.304 182.215 318.304 182.215V163.3C318.304 163.3 306.176 181.5 303.481 183.749C301.379 185.53 293.106 189.014 293.106 189.014Z" fill="#8CC63F"/>
<path d="M326.429 160.206C326.429 161.792 326.429 163.378 326.429 164.964C326.726 165.692 327.143 166.199 327.777 166.134C329.744 165.926 332.075 163.105 332.075 163.105L332.426 158.685L326.429 160.206Z" fill="#F9C7AF"/>
<path d="M335.983 149.234C334.757 146.634 332.345 146.205 329.852 146.634C329.284 146.243 328.644 145.961 327.965 145.802C326.888 145.548 325.758 145.591 324.705 145.927C323.652 146.262 322.718 146.877 322.01 147.7C321.329 147.617 320.638 147.702 320.002 147.947C318.129 148.714 317.9 150.638 318.331 152.328C318.331 152.393 318.331 152.458 318.331 152.523C318.443 153.439 318.798 154.312 319.362 155.057C319.926 155.801 320.681 156.393 321.551 156.774L331.28 161.454C332.335 160.899 333.225 160.093 333.868 159.114C334.078 158.729 334.215 158.311 334.272 157.879L334.46 157.684C335.486 156.542 336.169 155.152 336.437 153.663C336.706 152.174 336.549 150.643 335.983 149.234Z" fill="#895851"/>
<path d="M321.39 154.395C321.632 155.396 323.384 164.912 327.831 164.106C332.277 163.3 332.56 156.969 332.56 156.969C332.56 156.969 328.518 155.916 328.208 154.46C327.898 153.004 328.046 152.367 326.079 151.977C324.112 151.587 320.972 152.731 321.39 154.395Z" fill="#FFE0CE"/>
<path d="M317.509 183.151L316.862 173.856L313.965 187.311L317.509 183.151Z" fill="#6D9928"/>
<path d="M317.832 198.998C317.442 199.04 317.063 199.15 316.714 199.323C315.663 199.817 314.49 200.142 313.453 200.623C311.732 201.616 310.332 203.052 309.41 204.77C309.195 205.212 308.305 206.85 308.764 207.305C309.222 207.76 310.286 207.305 310.286 207.305C310.286 207.305 310.286 208.241 310.569 208.449C310.852 208.657 311.917 207.903 311.917 207.903C311.917 207.903 312.375 209.047 313.022 208.774C313.668 208.501 314.8 206.876 314.8 206.876C314.8 206.876 314.679 208.176 315.245 208.176C315.811 208.176 318.196 204.991 318.196 204.991L323.263 202.391C323.263 202.391 321.767 200.831 321.619 200.688C320.936 200.033 320.131 199.509 319.247 199.141C318.795 198.983 318.309 198.934 317.832 198.998Z" fill="#FFE0CE"/>
<path d="M316.97 203.119C315.825 204.311 314.965 205.731 314.45 207.279C314.45 207.474 314.693 207.552 314.76 207.357C315.259 205.862 316.091 204.491 317.199 203.34C317.334 203.197 317.118 202.976 316.97 203.119Z" fill="#5C2D1D"/>
<path d="M315.488 202.17C313.653 203.77 312.353 205.861 311.755 208.176C311.75 208.213 311.76 208.251 311.782 208.282C311.804 208.313 311.837 208.336 311.875 208.345C311.913 208.355 311.953 208.351 311.988 208.334C312.022 208.317 312.05 208.289 312.065 208.254C312.65 205.992 313.921 203.951 315.717 202.391C315.865 202.3 315.636 202.027 315.488 202.17Z" fill="#5C2D1D"/>
<path d="M313.978 201.832C312.178 203.32 310.832 205.252 310.084 207.422C310.084 207.617 310.327 207.695 310.394 207.5C311.127 205.38 312.446 203.492 314.207 202.04C314.369 201.923 314.14 201.702 313.978 201.832Z" fill="#5C2D1D"/>
<path d="M340.362 182.904C340.362 182.904 338.503 194.344 336.01 196.983C333.517 199.622 322.535 204.315 322.535 204.315C322.535 204.315 319.84 199.648 316.876 198.556C316.876 198.556 328.06 192.485 328.343 191.341" fill="#8CC63F"/>
<path d="M331.173 175.234C330.984 177.704 330.728 180.161 330.351 182.605C330.148 184.804 329.733 186.98 329.111 189.105C328.289 191.354 325.176 192.693 323.195 193.928C321.214 195.163 318.991 196.528 316.876 197.828C316.39 198.114 316.876 198.842 317.32 198.556C319.8 197.1 322.257 195.601 324.691 194.058C326.335 193.018 328.841 191.939 329.717 190.158C330.501 187.953 330.982 185.659 331.146 183.333C331.563 180.733 331.86 178.016 332.062 175.338C332.075 174.688 331.173 174.701 331.173 175.234Z" fill="#6D9928"/>
<path d="M100.373 124.898C99.5536 125.343 98.8722 125.991 98.3986 126.775C97.9249 127.559 97.6761 128.45 97.6777 129.357V254.95C97.489 257.55 100.494 259.877 102.933 258.538L156.24 229.262C158.383 228.079 255.955 175.117 255.955 172.738L261.332 41.1C261.349 40.6609 261.245 40.2253 261.03 39.8379C260.815 39.4506 260.497 39.1256 260.109 38.8964C259.72 38.6672 259.275 38.5422 258.82 38.5342C258.364 38.5262 257.915 38.6356 257.518 38.851C233.721 51.877 111.193 118.84 100.373 124.898Z" fill="#112E7C"/>
<path opacity="0.6" d="M110.951 136.533V241.963L122.714 234.735V129.981L110.951 136.533Z" fill="white"/>
<path d="M126.932 113.757L102.569 127.537C102.334 127.669 102.139 127.859 102.004 128.088C101.87 128.316 101.799 128.574 101.801 128.837V254.3C101.802 254.477 101.852 254.651 101.945 254.805C102.037 254.958 102.17 255.085 102.33 255.173C102.489 255.261 102.67 255.307 102.854 255.307C103.038 255.307 103.218 255.26 103.378 255.171L256.157 169.371C256.147 170.422 255.883 171.456 255.384 172.391C254.886 173.325 254.168 174.134 253.287 174.753C250.363 176.547 102.987 258.421 102.987 258.421C102.987 258.421 98.9443 260.202 97.7316 255.509V129.357C97.7336 128.541 97.9347 127.737 98.3187 127.01C98.7026 126.282 99.2585 125.653 99.9415 125.171C102.3 123.52 254.028 38.253 254.028 38.253C254.028 38.253 259.553 36.303 261.385 39.553L142.522 105.086" fill="#124577"/>
<path d="M265.954 12.786C257.437 17.648 236.309 29.686 230.07 33.209C229.532 33.5098 229.087 33.9425 228.779 34.4631C228.472 34.9837 228.312 35.5737 228.318 36.173V119.633C228.29 120.046 228.372 120.458 228.557 120.832C228.742 121.205 229.022 121.526 229.373 121.765C229.723 122.004 230.13 122.152 230.557 122.195C230.983 122.238 231.414 122.175 231.808 122.012L267.234 102.512C267.922 102.202 268.507 101.71 268.919 101.094C269.331 100.477 269.555 99.7614 269.565 99.028V14.775C269.563 14.3681 269.451 13.9688 269.239 13.6173C269.026 13.2658 268.722 12.9745 268.355 12.7728C267.989 12.5711 267.574 12.4661 267.153 12.4684C266.731 12.4707 266.317 12.5803 265.954 12.786Z" fill="#FFA513"/>
<path d="M234.786 41.1261L262.976 25.6171" stroke="#F2F2F2" stroke-miterlimit="10"/>
<path d="M234.786 47.3269L262.976 31.8049" stroke="#F2F2F2" stroke-miterlimit="10"/>
<path d="M234.099 55.088L262.288 39.566" stroke="#F2F2F2" stroke-miterlimit="10"/>
<path d="M234.099 61.276L262.288 45.754" stroke="#F2F2F2" stroke-miterlimit="10"/>
<path d="M236.794 87.9L264.983 72.391" stroke="#F2F2F2" stroke-miterlimit="10"/>
<path d="M236.794 94.101L264.983 78.579" stroke="#F2F2F2" stroke-miterlimit="10"/>
<path d="M236.106 101.849L264.296 86.34" stroke="#F2F2F2" stroke-miterlimit="10"/>
<path d="M236.106 108.05L264.296 92.528" stroke="#F2F2F2" stroke-miterlimit="10"/>
<path opacity="0.6" d="M128.899 127.628V213.753L138.507 207.851V122.272L128.899 127.628Z" fill="white"/>
<path d="M109.01 185.972L137.2 170.45" stroke="white" stroke-miterlimit="10"/>
<path d="M109.01 192.16L137.2 176.651" stroke="white" stroke-miterlimit="10"/>
<path d="M108.323 199.921L136.513 184.399" stroke="white" stroke-miterlimit="10"/>
<path d="M108.323 206.122L136.513 190.6" stroke="white" stroke-miterlimit="10"/>
<path d="M86.6686 211.725V225.466L90.4012 223.178V209.723C89.1211 210.347 87.8679 210.997 86.6686 211.725Z" fill="white"/>
<path d="M94.1338 202.937V221.501L97.8663 219.2V201.182L94.1338 202.937Z" fill="white"/>
<path d="M101.612 193.356V217.679L105.345 215.391V191.9C104.119 192.407 102.879 192.901 101.612 193.356Z" fill="white"/>
<path opacity="0.32" d="M194.509 265.883L165.659 284.395L151.16 276.114L180.226 259.825" fill="url(#paint2_linear)"/>
<path d="M149.327 169.085L185.063 186.089C185.063 186.089 186.505 190.6 183.392 191.744C180.279 192.888 143.87 173.947 143.87 173.947" fill="#112E7C"/>
<path d="M168.826 179.069C166.706 178.029 164.617 176.933 162.56 175.78C162.196 175.019 161.791 174.277 161.347 173.557C161.05 172.98 160.573 172.507 159.984 172.204C159.394 171.901 158.721 171.783 158.059 171.867C157.8 171.915 157.567 172.051 157.402 172.25C157.238 172.449 157.153 172.699 157.163 172.953C157.172 173.208 157.276 173.451 157.456 173.638C157.635 173.825 157.878 173.944 158.14 173.973L158.315 174.168C155.768 174.285 151.16 174.649 152.198 177.067C152.105 177.137 152.019 177.216 151.942 177.301C151.68 177.608 151.55 177.999 151.578 178.395C151.605 178.791 151.788 179.163 152.09 179.433C152.317 179.644 152.595 179.796 152.898 179.875C153.202 179.955 153.522 179.959 153.828 179.888C154.026 180.274 154.369 180.572 154.788 180.721C155.206 180.871 155.667 180.861 156.078 180.694L156.712 180.512C156.687 180.666 156.703 180.823 156.756 180.969C156.809 181.116 156.899 181.247 157.018 181.353C157.136 181.458 157.279 181.533 157.435 181.573C157.591 181.612 157.754 181.614 157.911 181.578L160.013 181.188C164.797 182.657 167.182 183.19 168.974 184.373C169.715 184.867 168.974 185.049 168.974 184.373C169.058 184.269 169.12 184.149 169.154 184.021C169.188 183.893 169.195 183.76 169.173 183.629C169.152 183.499 169.103 183.374 169.029 183.263C168.955 183.151 168.859 183.056 168.745 182.982L168.543 182.839C168.655 182.759 168.749 182.657 168.82 182.541C168.89 182.424 168.934 182.295 168.951 182.161C168.967 182.027 168.955 181.891 168.915 181.762C168.875 181.632 168.808 181.512 168.718 181.409L168.462 181.123C168.695 181.084 168.911 180.977 169.078 180.815C169.245 180.653 169.357 180.445 169.397 180.22C169.437 179.995 169.403 179.763 169.301 179.557C169.199 179.351 169.033 179.18 168.826 179.069Z" fill="#FF7D09"/>
<path d="M193.337 250.01L194.496 265.896L192.38 267.612L190.089 267.04C190.089 267.04 190.386 262.841 189.577 261.918C188.769 260.995 187.408 265.558 186.626 265.532C185.845 265.506 176.52 263.101 176.385 261.996C176.21 260.527 178.299 258.85 182.26 259.773C186.545 260.774 187.286 256.12 187.974 251.661" fill="#F8997C"/>
<path d="M186.64 253.182C186.64 253.182 190.682 254.846 197.689 250.582C197.689 250.582 195.277 229.522 195.479 225.882C195.681 222.242 199.886 196.06 194.698 190.288C189.51 184.516 180.252 240 180.657 240.325" fill="#A1C3FC"/>
<path d="M190.035 262.529L189.645 261.918C189.349 261.645 188.984 261.453 188.586 261.362C188.188 261.271 187.772 261.283 187.381 261.398C186.262 261.905 186.424 265.675 186.424 265.675L190.305 264.271C190.347 263.678 190.255 263.084 190.035 262.529Z" fill="#9E005D"/>
<path d="M180.657 257.797L180.253 273.709L178.029 275.23L175.806 274.45C175.806 274.45 176.506 270.29 175.806 269.25C175.105 268.21 173.286 272.682 172.504 272.578C171.723 272.474 162.681 269.237 162.654 268.119C162.654 266.637 164.878 265.168 168.718 266.455C172.882 267.846 174.108 263.283 175.199 258.902" fill="#F8997C"/>
<path d="M176.143 269.9L175.819 269.25C175.552 268.95 175.205 268.724 174.817 268.596C174.428 268.468 174.012 268.442 173.609 268.522C172.437 268.925 172.262 272.682 172.262 272.682L176.304 271.642C176.381 271.057 176.326 270.463 176.143 269.9Z" fill="#9E005D"/>
<path d="M179.309 196.463C179.309 196.463 172.397 214.429 170.833 222.216C169.27 230.003 169.203 259.175 169.769 259.916C170.335 260.657 177.045 262.1 181.6 262.1C186.155 262.1 185.508 227.611 185.508 227.611C185.508 227.611 197.837 197.464 194.536 194.162C191.235 190.86 179.309 196.463 179.309 196.463Z" fill="#A1C3FC"/>
<path d="M179.026 196.801C185.292 198.712 193.256 196.424 197.083 191.224C196.355 182.722 194.846 168.669 192.582 166.524C189.308 163.482 182.22 167.824 179.66 172.062C178.169 175.317 176.895 178.66 175.846 182.072L166.198 176.768L163.274 183.385C163.274 183.385 169.89 195.41 178.824 192.667L179.026 196.801Z" fill="#F8997C"/>
<path d="M185.063 181.214C185.063 181.119 185.024 181.028 184.955 180.961C184.885 180.894 184.791 180.857 184.693 180.857C184.594 180.857 184.5 180.894 184.43 180.961C184.361 181.028 184.322 181.119 184.322 181.214C184.536 183.962 184.041 186.717 182.88 189.235C182.367 190.268 181.589 191.158 180.62 191.82C179.65 192.482 178.522 192.894 177.342 193.018C176.87 193.018 176.87 193.746 177.342 193.733C178.602 193.615 179.813 193.197 180.864 192.517C181.915 191.836 182.775 190.914 183.365 189.833C184.942 187.259 185.077 184.1 185.063 181.214Z" fill="white"/>
<path d="M181.681 151.119C181.169 151.223 180.333 152.003 179.134 154.785C177.935 157.567 180.845 161.103 182.112 161.844C183.346 162.892 184.401 164.12 185.238 165.484C185.238 165.484 189.914 166.576 193.067 161.051C196.22 155.526 189.281 149.52 181.681 151.119Z" fill="#FFB468"/>
<path d="M180.36 154.2C180.36 154.2 178.002 163.443 181.479 165.549C184.955 167.655 189.645 162.052 190.089 159.816C190.534 157.58 188.001 152.731 180.36 154.2Z" fill="#FF7D09"/>
<path d="M180.36 154.2C180.36 154.2 179.781 160.232 183.055 161.558C186.33 162.884 186.357 164.782 186.357 164.782C186.357 164.782 192.286 161.727 192.905 159.023C193.525 156.319 184.901 151.782 180.36 154.2Z" fill="#FFB468"/>
<path d="M191.248 161.454C190.062 170.554 192.434 182.098 188.553 190.587C188.311 191.107 187.799 193.46 187.394 193.46L196.827 188.481C200.627 186.219 203.376 184.75 202.028 179.004C200.681 173.258 193.04 161.012 193.04 161.012L191.248 161.454Z" fill="#FFB468"/>
<path d="M176.816 177.6C176.234 180.002 175.784 182.432 175.469 184.88C175.469 185.335 176.143 185.335 176.21 184.88C176.529 182.497 176.979 180.132 177.558 177.795C177.652 177.327 176.938 177.132 176.816 177.6Z" fill="white"/>
<path d="M190.143 165.549L189.254 163.716C187.513 164.582 185.712 165.329 183.864 165.952C181.64 166.602 182.26 169.085 182.26 169.085C182.26 169.085 187.408 169.098 190.143 165.549Z" fill="#5FAD00"/>
<defs>
<linearGradient id="paint0_linear" x1="280.816" y1="263.01" x2="308.215" y2="213.605" gradientUnits="userSpaceOnUse">
<stop stop-opacity="0"/>
<stop offset="0.99" stop-color="#006837"/>
</linearGradient>
<linearGradient id="paint1_linear" x1="277.259" y1="219.395" x2="295.191" y2="197.169" gradientUnits="userSpaceOnUse">
<stop stop-opacity="0"/>
<stop offset="0.99" stop-color="#1A1A1A"/>
</linearGradient>
<linearGradient id="paint2_linear" x1="6653.95" y1="5663.02" x2="6810.42" y2="5183.02" gradientUnits="userSpaceOnUse">
<stop stop-opacity="0"/>
<stop offset="0.99" stop-color="#006837"/>
</linearGradient>
</defs>
</svg>
