<svg width="1200" height="1000" viewBox="0 0 1200 1000" fill="none" xmlns="http://www.w3.org/2000/svg">
<path d="M105.227 18.2357L107.258 23.3277L105.176 24.3368C104.851 24.4696 104.544 24.684 104.279 24.9627C104.014 25.2414 103.799 25.5764 103.651 25.9406C103.508 26.3518 103.445 26.7774 103.465 27.1849C103.485 27.5924 103.588 27.9709 103.768 28.2915L106.546 35.1985C106.839 35.8963 107.032 36.6608 107.117 37.4673C107.196 38.034 107.158 38.6389 107.006 39.2376C106.884 39.6602 106.722 40.0745 106.523 40.4719C106.399 40.7478 106.226 40.9996 106.019 41.2087L105.799 41.4651L106.143 41.4369C106.426 41.4459 106.703 41.4801 106.973 41.539C107.392 41.6198 107.789 41.767 108.154 41.977C108.599 42.2764 108.999 42.6455 109.345 43.076C109.833 43.6555 110.231 44.3311 110.525 45.0817L113.312 52.0282C113.572 52.7918 114.085 53.3675 114.758 53.6504C115.399 53.9132 116.15 53.8703 116.867 53.53L118.983 52.5303L120.95 57.6977L117.783 59.1761C115.792 60.2004 113.679 60.3938 111.856 59.7187C110.004 58.9025 108.583 57.3083 107.834 55.2057L105.009 47.8314C104.737 47.0264 104.196 46.42 103.487 46.1238C102.779 45.8605 101.959 45.931 101.184 46.3218L99.2773 41.6067C99.6336 41.4734 99.9735 41.2509 100.27 40.9569C100.567 40.6629 100.812 40.3055 100.986 39.913C101.133 39.4989 101.201 39.0696 101.185 38.6573C101.169 38.245 101.071 37.8603 100.896 37.5319L97.9691 30.251C97.5147 29.3812 97.2514 28.3705 97.1972 27.2879C97.143 26.2052 97.2992 25.0762 97.655 23.9779C98.1091 22.9718 98.7454 22.0582 99.5129 21.3105C100.28 20.5627 101.158 20.0015 102.075 19.6718L105.227 18.2357Z" fill="#FFF2C4" fill-opacity="0.28"/>
<path d="M1087.82 273.416L1086.96 277.461L1085.03 276.748C1084.75 276.623 1084.43 276.554 1084.12 276.546C1083.81 276.538 1083.5 276.591 1083.23 276.702C1082.95 276.841 1082.71 277.037 1082.54 277.274C1082.37 277.511 1082.27 277.783 1082.25 278.068L1081.1 283.568C1080.99 284.132 1080.78 284.67 1080.48 285.166C1080.28 285.527 1079.98 285.837 1079.6 286.074C1079.33 286.233 1079.02 286.363 1078.7 286.46C1078.49 286.537 1078.26 286.57 1078.02 286.559L1077.74 286.566L1078 286.761C1078.2 286.938 1078.38 287.126 1078.54 287.323C1078.8 287.623 1079.01 287.946 1079.18 288.284C1079.36 288.72 1079.47 289.167 1079.52 289.615C1079.61 290.232 1079.58 290.847 1079.45 291.44L1078.29 296.967C1078.13 297.546 1078.23 298.176 1078.58 298.742C1078.91 299.278 1079.46 299.712 1080.12 299.961L1082.07 300.7L1081.12 304.746L1078.22 303.631C1076.35 302.982 1074.77 301.801 1073.79 300.317C1072.85 298.739 1072.56 296.994 1072.98 295.379L1074.31 289.593C1074.48 288.984 1074.38 288.32 1074.01 287.725C1073.63 287.148 1073.02 286.687 1072.29 286.43L1073.07 282.669C1073.39 282.813 1073.73 282.898 1074.07 282.916C1074.41 282.935 1074.75 282.888 1075.05 282.778C1075.34 282.639 1075.58 282.444 1075.75 282.207C1075.93 281.97 1076.03 281.698 1076.06 281.41L1077.27 275.614C1077.35 274.858 1077.62 274.14 1078.07 273.511C1078.52 272.881 1079.14 272.354 1079.88 271.966C1080.66 271.688 1081.52 271.572 1082.4 271.628C1083.28 271.684 1084.15 271.909 1084.95 272.286L1087.82 273.416Z" fill="#FFF2C4" fill-opacity="0.28"/>
<path d="M132.978 5.20968C134.968 4.18543 137.082 3.99197 138.905 4.66712C140.754 5.47747 142.172 7.06829 142.915 9.16788L145.728 16.5573C146 17.3623 146.541 17.9686 147.25 18.2649C147.958 18.5245 148.777 18.4541 149.553 18.0668L151.459 22.782C151.107 22.916 150.77 23.1355 150.475 23.4241C150.179 23.7126 149.932 24.0628 149.752 24.4484C149.606 24.8641 149.537 25.2948 149.55 25.7092C149.564 26.1236 149.659 26.5114 149.83 26.8446L152.759 34.0982C153.217 34.9682 153.483 35.9804 153.539 37.0654C153.595 38.1503 153.44 39.2823 153.084 40.3836C152.63 41.3897 151.993 42.3033 151.226 43.0511C150.458 43.7988 149.581 44.3601 148.664 44.6897L145.497 46.1682L143.53 41.0008L145.634 40.0161C145.959 39.8857 146.267 39.6754 146.536 39.4015C146.804 39.1276 147.025 38.7974 147.181 38.4366C147.319 38.0448 147.385 37.639 147.374 37.248C147.363 36.8569 147.275 36.4903 147.117 36.174L144.33 29.2275C144.033 28.5259 143.837 27.7575 143.748 26.9465C143.67 26.3837 143.711 25.782 143.87 25.1884C144.006 24.7786 144.167 24.3752 144.35 23.9814C144.472 23.6882 144.655 23.4234 144.88 23.2144L145.075 22.9882L144.741 23.0286C144.46 23.0125 144.183 22.9783 143.912 22.9264C143.484 22.8521 143.082 22.7003 142.719 22.4763C142.275 22.1757 141.876 21.8067 141.529 21.3772C141.041 20.797 140.643 20.1215 140.348 19.3715L137.57 12.4645C137.298 11.6962 136.779 11.1142 136.103 10.8179C135.454 10.5082 134.675 10.5251 133.929 10.8651L131.825 11.8498L129.794 6.75779L132.978 5.20968Z" fill="#FFF2C4" fill-opacity="0.28"/>
<path d="M1113.31 283.153C1115.18 283.801 1116.76 284.983 1117.74 286.466C1118.68 288.04 1118.96 289.781 1118.54 291.391L1117.19 297.178C1117.02 297.787 1117.13 298.451 1117.5 299.046C1117.88 299.621 1118.49 300.082 1119.21 300.341L1118.43 304.101C1118.12 303.96 1117.79 303.876 1117.45 303.855C1117.11 303.834 1116.78 303.876 1116.48 303.979C1116.18 304.119 1115.94 304.314 1115.76 304.551C1115.59 304.787 1115.48 305.059 1115.45 305.347L1114.24 311.13C1114.18 311.888 1113.91 312.608 1113.46 313.24C1113.01 313.872 1112.39 314.402 1111.64 314.791C1110.86 315.069 1110 315.185 1109.12 315.129C1108.24 315.073 1107.37 314.848 1106.57 314.471L1103.67 313.355L1104.61 309.309L1106.54 310.048C1106.83 310.174 1107.14 310.246 1107.46 310.259C1107.77 310.272 1108.07 310.224 1108.35 310.121C1108.62 309.989 1108.85 309.805 1109.02 309.583C1109.19 309.361 1109.29 309.105 1109.32 308.835L1110.49 303.308C1110.59 302.74 1110.8 302.197 1111.11 301.696C1111.3 301.338 1111.61 301.032 1111.99 300.801C1112.27 300.659 1112.56 300.534 1112.87 300.429C1113.09 300.342 1113.34 300.308 1113.59 300.33L1113.83 300.323L1113.58 300.142C1113.38 299.962 1113.2 299.775 1113.04 299.58C1112.77 299.279 1112.55 298.95 1112.4 298.606C1112.22 298.169 1112.1 297.722 1112.05 297.274C1111.97 296.657 1111.99 296.043 1112.12 295.449L1113.28 289.95C1113.43 289.361 1113.33 288.724 1112.98 288.148C1112.66 287.582 1112.11 287.117 1111.43 286.849L1109.5 286.109L1110.36 282.065L1113.31 283.153Z" fill="#FFF2C4" fill-opacity="0.28"/>
<path d="M131.242 17.2046L128.802 30.5416L140.092 37.9712L133.929 40.8534L126.83 36.3215L125.05 45.0107L118.91 47.89L121.599 33.9147L110.88 26.7402L117.263 23.7502L123.556 28.1772L124.871 20.1795L131.242 17.2046Z" fill="#FFF2C4" fill-opacity="0.28"/>
<path d="M1106.67 288.705L1098.93 294.568L1103.55 305.543L1097.89 303.375L1094.92 296.551L1089.75 300.254L1084.11 298.099L1092.31 292.036L1087.98 281.549L1093.84 283.792L1096.29 290.067L1100.82 286.461L1106.67 288.705Z" fill="#FFF2C4" fill-opacity="0.28"/>
<path d="M1173.7 967.959L1172.18 974.114L1162.16 974.86L1169.36 985.523L1167.84 991.678L1156 973.767L1157.04 969.485L1173.7 967.959Z" fill="#FFF5E1" fill-opacity="0.88"/>
<path d="M592.735 551.846L595.185 561.761L581.296 575.464L599.736 580.131L602.186 590.046L571.587 581.877L569.868 574.991L592.735 551.846Z" fill="#F8F3EA" fill-opacity="0.69"/>
<path d="M1188.16 976.264L1200 994.192L1198.95 998.457L1182.31 1000L1183.83 993.828L1193.84 993.082L1186.64 982.437L1188.16 976.264Z" fill="#FFF5E1" fill-opacity="0.88"/>
<path d="M613.994 543.366L646.592 551.342L648.314 558.557L623.539 583.549L621.055 573.102L636.098 558.319L616.478 553.814L613.994 543.366Z" fill="#F8F3EA" fill-opacity="0.69"/>
<path d="M1184.51 969.294L1187.58 971.045L1172.28 999.116L1169.22 997.347L1184.51 969.294Z" fill="#FFF5E1" fill-opacity="0.88"/>
<path d="M602.363 539.873L607.243 539.74L616.585 598.31L611.702 598.405L602.363 539.873Z" fill="#F8F3EA" fill-opacity="0.69"/>
<path d="M21.5259 921.065C21.6849 921.037 21.8279 921.072 21.9551 921.169C22.0822 921.265 22.1537 921.394 22.1696 921.554L23.567 935.698C23.5829 935.858 23.5388 936.007 23.4347 936.144C23.3307 936.281 23.1992 936.363 23.0402 936.39L18.5752 937.167C18.4163 937.194 18.2732 937.16 18.1461 937.063C18.019 936.967 17.9475 936.838 17.9316 936.677L17.4708 932.014L13.1359 932.768L13.5966 937.431C13.6125 937.592 13.5684 937.74 13.4643 937.877C13.3603 938.014 13.2288 938.096 13.0698 938.124L8.60482 938.9C8.44587 938.928 8.30355 938.901 8.17786 938.819C8.05072 938.722 7.9785 938.586 7.96119 938.411L6.56371 924.268C6.54785 924.107 6.59195 923.959 6.69601 923.822C6.80007 923.685 6.93157 923.603 7.09052 923.575L11.5555 922.799C11.7145 922.771 11.8575 922.806 11.9847 922.902C12.1118 922.999 12.1833 923.128 12.1992 923.288L12.6426 927.776L16.9776 927.022L16.5341 922.534C16.5183 922.374 16.5624 922.225 16.6664 922.088C16.7705 921.951 16.902 921.869 17.0609 921.841L21.5259 921.065ZM40.4179 917.78C40.5768 917.753 40.7199 917.787 40.847 917.884C40.9742 917.98 41.0457 918.109 41.0615 918.27L41.4098 921.794C41.4257 921.955 41.3816 922.104 41.2775 922.241C41.1734 922.377 41.0419 922.46 40.883 922.487L36.2229 923.298L37.2137 933.325C37.2296 933.485 37.1855 933.634 37.0814 933.771C36.9773 933.908 36.8458 933.99 36.6869 934.018L32.2219 934.794C32.0629 934.822 31.9199 934.787 31.7928 934.69C31.6656 934.594 31.5941 934.465 31.5782 934.305L30.5875 924.277L25.9274 925.088C25.7684 925.115 25.6254 925.081 25.4983 924.984C25.3711 924.888 25.2996 924.759 25.2838 924.598L24.9355 921.074C24.9196 920.913 24.9637 920.764 25.0678 920.627C25.1718 920.491 25.3033 920.408 25.4623 920.381L40.4179 917.78ZM54.4697 915.938C54.6476 915.506 54.9388 915.255 55.3434 915.185L59.3098 914.495C59.4688 914.468 59.6118 914.502 59.739 914.599C59.8661 914.696 59.9376 914.824 59.9535 914.985L61.3509 929.128C61.3668 929.288 61.3227 929.437 61.2187 929.574C61.1146 929.711 60.9831 929.793 60.8241 929.821L56.901 930.503C56.7421 930.531 56.599 930.496 56.4719 930.399C56.3447 930.303 56.2732 930.174 56.2574 930.014L55.5868 923.227L54.316 926.654C54.2828 926.764 54.1931 926.898 54.0472 927.057C53.9012 927.216 53.7054 927.317 53.4597 927.36L51.9859 927.616C51.7402 927.659 51.5314 927.628 51.3595 927.525C51.1876 927.421 51.0749 927.322 51.0214 927.227L49.1277 924.35L49.7983 931.137C49.8141 931.297 49.77 931.446 49.666 931.583C49.5619 931.72 49.4304 931.802 49.2715 931.829L45.3483 932.512C45.1894 932.539 45.0463 932.505 44.9192 932.408C44.7921 932.311 44.7206 932.183 44.7047 932.022L43.3072 917.879C43.2914 917.719 43.3355 917.57 43.4395 917.433C43.5436 917.296 43.6751 917.214 43.834 917.186L47.8005 916.497C48.2051 916.426 48.5353 916.569 48.7909 916.926L52.1495 921.686L54.4697 915.938ZM78.3406 922.21C78.4996 922.182 78.6426 922.217 78.7697 922.313C78.8969 922.41 78.9684 922.539 78.9842 922.699L79.3109 926.005C79.3268 926.166 79.2827 926.314 79.1786 926.451C79.0745 926.588 78.943 926.67 78.7841 926.698L66.126 928.899C65.967 928.927 65.824 928.892 65.6969 928.795C65.5697 928.699 65.4982 928.57 65.4824 928.41L64.0849 914.266C64.069 914.106 64.1131 913.957 64.2172 913.82C64.3212 913.683 64.4527 913.601 64.6117 913.573L69.2935 912.759C69.4524 912.732 69.5954 912.766 69.7226 912.863C69.8497 912.96 69.9212 913.088 69.9371 913.249L70.9495 923.495L78.3406 922.21Z" fill="#FFCF25" fill-opacity="0.11"/>
</svg>
